<svg xmlns="http://www.w3.org/2000/svg" xmlns:xlink="http://www.w3.org/1999/xlink" width="120" zoomAndPan="magnify" viewBox="0 0 90 89.999999" height="120" preserveAspectRatio="xMidYMid meet" version="1.0"><defs><g/></defs><g fill="#a6a6a6" fill-opacity="1"><g transform="translate(45.26826, 78.566508)"><g><path d="M -0.546875 1.234375 C -0.554688 1.335938 -0.601562 1.4375 -0.6875 1.53125 C -0.78125 1.632812 -0.875 1.679688 -0.96875 1.671875 C -1.03125 1.660156 -1.109375 1.597656 -1.203125 1.484375 L -1.515625 1.09375 C -1.628906 0.945312 -1.816406 0.8125 -2.078125 0.6875 C -2.335938 0.5625 -2.644531 0.484375 -3 0.453125 C -3.59375 0.398438 -4.0625 0.507812 -4.40625 0.78125 C -4.757812 1.0625 -4.957031 1.484375 -5 2.046875 C -5.03125 2.410156 -4.976562 2.726562 -4.84375 3 C -4.71875 3.269531 -4.535156 3.488281 -4.296875 3.65625 C -4.078125 3.8125 -3.820312 3.960938 -3.53125 4.109375 L -2.671875 4.53125 C -2.390625 4.675781 -2.132812 4.835938 -1.90625 5.015625 C -1.675781 5.191406 -1.492188 5.4375 -1.359375 5.75 C -1.234375 6.0625 -1.1875 6.421875 -1.21875 6.828125 C -1.25 7.253906 -1.359375 7.613281 -1.546875 7.90625 C -1.734375 8.207031 -1.96875 8.425781 -2.25 8.5625 C -2.539062 8.707031 -2.832031 8.800781 -3.125 8.84375 C -3.414062 8.894531 -3.71875 8.90625 -4.03125 8.875 C -4.539062 8.832031 -5.015625 8.71875 -5.453125 8.53125 C -5.890625 8.351562 -6.101562 8.15625 -6.09375 7.9375 C -6.082031 7.84375 -6.035156 7.75 -5.953125 7.65625 C -5.867188 7.5625 -5.773438 7.515625 -5.671875 7.515625 C -5.628906 7.523438 -5.535156 7.570312 -5.390625 7.65625 C -5.253906 7.75 -5.066406 7.84375 -4.828125 7.9375 C -4.585938 8.039062 -4.300781 8.101562 -3.96875 8.125 C -3.445312 8.164062 -3.003906 8.085938 -2.640625 7.890625 C -2.285156 7.691406 -2.085938 7.335938 -2.046875 6.828125 C -2.023438 6.472656 -2.101562 6.164062 -2.28125 5.90625 C -2.46875 5.644531 -2.707031 5.445312 -3 5.3125 C -3.300781 5.1875 -3.625 5.035156 -3.96875 4.859375 C -4.320312 4.679688 -4.644531 4.492188 -4.9375 4.296875 C -5.226562 4.097656 -5.460938 3.800781 -5.640625 3.40625 C -5.816406 3.019531 -5.882812 2.5625 -5.84375 2.03125 C -5.769531 1.175781 -5.476562 0.550781 -4.96875 0.15625 C -4.46875 -0.226562 -3.8125 -0.390625 -3 -0.328125 C -2.28125 -0.273438 -1.6875 -0.0703125 -1.21875 0.28125 C -0.75 0.632812 -0.523438 0.953125 -0.546875 1.234375 Z M -0.546875 1.234375 "/></g></g></g><g fill="#a6a6a6" fill-opacity="1"><g transform="translate(36.994409, 77.66615)"><g><path d="M -3.109375 8.234375 C -3.140625 8.328125 -3.210938 8.390625 -3.328125 8.421875 C -3.441406 8.460938 -3.550781 8.46875 -3.65625 8.4375 C -3.78125 8.382812 -3.851562 8.269531 -3.875 8.09375 L -4.546875 3.015625 L -8.234375 6.578125 C -8.367188 6.703125 -8.5 6.742188 -8.625 6.703125 C -8.726562 6.671875 -8.8125 6.601562 -8.875 6.5 C -8.945312 6.40625 -8.96875 6.3125 -8.9375 6.21875 C -8.90625 6.144531 -8.867188 6.082031 -8.828125 6.03125 L -4.734375 2.171875 C -4.703125 2.140625 -4.679688 2.113281 -4.671875 2.09375 L -3.640625 -0.90625 C -3.609375 -1.007812 -3.539062 -1.070312 -3.4375 -1.09375 C -3.34375 -1.125 -3.238281 -1.117188 -3.125 -1.078125 C -3.03125 -1.046875 -2.953125 -0.988281 -2.890625 -0.90625 C -2.835938 -0.832031 -2.828125 -0.742188 -2.859375 -0.640625 L -3.890625 2.359375 C -3.910156 2.390625 -3.921875 2.421875 -3.921875 2.453125 L -3.09375 8.015625 C -3.070312 8.085938 -3.078125 8.160156 -3.109375 8.234375 Z M -3.109375 8.234375 "/></g></g></g><g fill="#a6a6a6" fill-opacity="1"><g transform="translate(28.839465, 74.576754)"><g><path d="M -0.96875 -0.28125 L -5.78125 6.75 C -5.90625 6.914062 -6.082031 6.925781 -6.3125 6.78125 C -6.507812 6.644531 -6.578125 6.363281 -6.515625 5.9375 L -5.53125 -1.46875 L -9.4375 4.25 C -9.5625 4.414062 -9.738281 4.421875 -9.96875 4.265625 C -10.195312 4.109375 -10.25 3.945312 -10.125 3.78125 L -5.3125 -3.25 C -5.25 -3.332031 -5.164062 -3.375 -5.0625 -3.375 C -4.96875 -3.375 -4.878906 -3.347656 -4.796875 -3.296875 C -4.617188 -3.171875 -4.550781 -2.929688 -4.59375 -2.578125 L -5.578125 4.953125 L -1.65625 -0.75 C -1.59375 -0.832031 -1.507812 -0.867188 -1.40625 -0.859375 C -1.3125 -0.859375 -1.21875 -0.828125 -1.125 -0.765625 C -1.03125 -0.703125 -0.960938 -0.625 -0.921875 -0.53125 C -0.890625 -0.445312 -0.90625 -0.363281 -0.96875 -0.28125 Z M -0.96875 -0.28125 "/></g></g></g><g fill="#a6a6a6" fill-opacity="1"><g transform="translate(21.395202, 69.063879)"><g><path d="M -0.875 -0.5 L -7.359375 5.015625 C -7.429688 5.078125 -7.507812 5.097656 -7.59375 5.078125 C -7.6875 5.054688 -7.765625 5.003906 -7.828125 4.921875 L -10.71875 1.53125 C -10.851562 1.375 -10.828125 1.210938 -10.640625 1.046875 C -10.554688 0.984375 -10.46875 0.945312 -10.375 0.9375 C -10.28125 0.925781 -10.203125 0.957031 -10.140625 1.03125 L -7.546875 4.078125 L -4.921875 1.84375 L -6.1875 0.359375 C -6.25 0.273438 -6.269531 0.1875 -6.25 0.09375 C -6.238281 0.0078125 -6.1875 -0.0664062 -6.09375 -0.140625 C -5.925781 -0.273438 -5.773438 -0.257812 -5.640625 -0.09375 L -4.375 1.390625 L -1.734375 -0.859375 L -4.328125 -3.90625 C -4.390625 -3.976562 -4.410156 -4.0625 -4.390625 -4.15625 C -4.367188 -4.25 -4.316406 -4.328125 -4.234375 -4.390625 C -4.046875 -4.554688 -3.882812 -4.5625 -3.75 -4.40625 L -0.859375 -1.015625 C -0.796875 -0.929688 -0.757812 -0.84375 -0.75 -0.75 C -0.75 -0.65625 -0.789062 -0.570312 -0.875 -0.5 Z M -0.875 -0.5 "/></g></g></g><g fill="#a6a6a6" fill-opacity="1"><g transform="translate(16.094878, 62.438863)"><g><path d="M -0.703125 -0.71875 L -8.375 2.96875 C -8.539062 3.050781 -8.679688 3.003906 -8.796875 2.828125 L -9.765625 0.828125 C -10.109375 0.109375 -10.210938 -0.554688 -10.078125 -1.171875 C -9.953125 -1.796875 -9.5 -2.300781 -8.71875 -2.6875 C -7.46875 -3.28125 -6.453125 -3.039062 -5.671875 -1.96875 L -3.171875 -5.296875 C -3.148438 -5.347656 -3.109375 -5.390625 -3.046875 -5.421875 C -2.953125 -5.472656 -2.84375 -5.472656 -2.71875 -5.421875 C -2.59375 -5.367188 -2.503906 -5.289062 -2.453125 -5.1875 C -2.378906 -5.039062 -2.445312 -4.847656 -2.65625 -4.609375 L -5.21875 -1.21875 L -4.53125 0.203125 L -1.0625 -1.46875 C -0.96875 -1.507812 -0.875 -1.503906 -0.78125 -1.453125 C -0.695312 -1.398438 -0.632812 -1.320312 -0.59375 -1.21875 C -0.539062 -1.113281 -0.519531 -1.015625 -0.53125 -0.921875 C -0.550781 -0.828125 -0.609375 -0.757812 -0.703125 -0.71875 Z M -5.15625 0.5 L -5.90625 -1.03125 C -6.445312 -2.15625 -7.25 -2.460938 -8.3125 -1.953125 C -9.363281 -1.441406 -9.617188 -0.625 -9.078125 0.5 L -8.328125 2.03125 Z M -5.15625 0.5 "/></g></g></g><g fill="#a6a6a6" fill-opacity="1"><g transform="translate(12.554371, 54.462074)"><g><path d="M -2.71875 -0.34375 L -6.53125 0.375 C -7.425781 0.539062 -8.128906 0.425781 -8.640625 0.03125 C -9.160156 -0.351562 -9.492188 -0.925781 -9.640625 -1.6875 C -9.785156 -2.46875 -9.703125 -3.128906 -9.390625 -3.671875 C -9.078125 -4.210938 -8.609375 -4.539062 -7.984375 -4.65625 C -7.710938 -4.707031 -7.550781 -4.597656 -7.5 -4.328125 C -7.445312 -4.066406 -7.519531 -3.914062 -7.71875 -3.875 C -8.695312 -3.570312 -9.085938 -2.894531 -8.890625 -1.84375 C -8.671875 -0.675781 -7.9375 -0.207031 -6.6875 -0.4375 L -2.875 -1.15625 C -2.238281 -1.28125 -1.789062 -1.523438 -1.53125 -1.890625 C -1.28125 -2.253906 -1.207031 -2.710938 -1.3125 -3.265625 C -1.414062 -3.828125 -1.648438 -4.226562 -2.015625 -4.46875 C -2.390625 -4.71875 -2.894531 -4.78125 -3.53125 -4.65625 L -4.984375 -4.390625 L -4.671875 -2.734375 C -4.648438 -2.648438 -4.671875 -2.570312 -4.734375 -2.5 C -4.796875 -2.425781 -4.875 -2.378906 -4.96875 -2.359375 C -5.0625 -2.347656 -5.148438 -2.363281 -5.234375 -2.40625 C -5.316406 -2.445312 -5.367188 -2.507812 -5.390625 -2.59375 L -5.796875 -4.765625 C -5.835938 -4.960938 -5.75 -5.082031 -5.53125 -5.125 L -3.6875 -5.46875 C -2.78125 -5.644531 -2.066406 -5.539062 -1.546875 -5.15625 C -1.035156 -4.769531 -0.707031 -4.1875 -0.5625 -3.40625 C -0.414062 -2.632812 -0.507812 -1.972656 -0.84375 -1.421875 C -1.1875 -0.878906 -1.8125 -0.519531 -2.71875 -0.34375 Z M -2.71875 -0.34375 "/></g></g></g><g fill="#a6a6a6" fill-opacity="1"><g transform="translate(11.32919, 45.495029)"><g><path d="M -0.3125 -0.96875 L -8.828125 -1.171875 C -9.035156 -1.171875 -9.132812 -1.304688 -9.125 -1.578125 C -9.113281 -1.859375 -9.003906 -2 -8.796875 -2 L -0.28125 -1.796875 C -0.175781 -1.785156 -0.0976562 -1.738281 -0.046875 -1.65625 C 0.00390625 -1.570312 0.03125 -1.472656 0.03125 -1.359375 C 0.03125 -1.242188 0 -1.144531 -0.0625 -1.0625 C -0.125 -0.988281 -0.207031 -0.957031 -0.3125 -0.96875 Z M -0.3125 -0.96875 "/></g></g></g><g fill="#a6a6a6" fill-opacity="1"><g transform="translate(11.519463, 40.421766)"><g><path d="M -0.21875 -0.359375 C -0.300781 -0.378906 -0.390625 -0.421875 -0.484375 -0.484375 L -7.15625 -6.3125 L -8 -2.625 C -8.019531 -2.53125 -8.070312 -2.460938 -8.15625 -2.421875 C -8.25 -2.378906 -8.347656 -2.367188 -8.453125 -2.390625 C -8.554688 -2.421875 -8.632812 -2.46875 -8.6875 -2.53125 C -8.75 -2.601562 -8.769531 -2.691406 -8.75 -2.796875 L -7.734375 -7.21875 C -7.691406 -7.425781 -7.585938 -7.507812 -7.421875 -7.46875 C -7.316406 -7.445312 -7.210938 -7.382812 -7.109375 -7.28125 L -0.453125 -1.5 L 0.46875 -5.484375 C 0.488281 -5.585938 0.539062 -5.65625 0.625 -5.6875 C 0.71875 -5.726562 0.8125 -5.734375 0.90625 -5.703125 C 1 -5.679688 1.078125 -5.632812 1.140625 -5.5625 C 1.210938 -5.5 1.238281 -5.414062 1.21875 -5.3125 L 0.125 -0.578125 C 0.0820312 -0.390625 -0.03125 -0.316406 -0.21875 -0.359375 Z M -0.21875 -0.359375 "/></g></g></g><g fill="#a6a6a6" fill-opacity="1"><g transform="translate(13.598739, 32.483087)"><g><path d="M 0.140625 -1 L -7.421875 -4.890625 C -7.503906 -4.929688 -7.554688 -5 -7.578125 -5.09375 C -7.597656 -5.1875 -7.582031 -5.28125 -7.53125 -5.375 L -5.5 -9.328125 C -5.40625 -9.515625 -5.25 -9.550781 -5.03125 -9.4375 C -4.9375 -9.382812 -4.863281 -9.316406 -4.8125 -9.234375 C -4.769531 -9.148438 -4.773438 -9.0625 -4.828125 -8.96875 L -6.65625 -5.40625 L -3.578125 -3.828125 L -2.6875 -5.578125 C -2.632812 -5.660156 -2.566406 -5.710938 -2.484375 -5.734375 C -2.398438 -5.753906 -2.304688 -5.738281 -2.203125 -5.6875 C -2.003906 -5.59375 -1.957031 -5.453125 -2.0625 -5.265625 L -2.953125 -3.515625 L 0.125 -1.921875 L 1.953125 -5.484375 C 1.992188 -5.566406 2.0625 -5.617188 2.15625 -5.640625 C 2.257812 -5.660156 2.359375 -5.644531 2.453125 -5.59375 C 2.671875 -5.476562 2.734375 -5.328125 2.640625 -5.140625 L 0.609375 -1.1875 C 0.554688 -1.09375 0.488281 -1.023438 0.40625 -0.984375 C 0.320312 -0.941406 0.234375 -0.945312 0.140625 -1 Z M 0.140625 -1 "/></g></g></g><g fill="#a6a6a6" fill-opacity="1"><g transform="translate(17.934976, 24.970318)"><g/></g></g><g fill="#a6a6a6" fill-opacity="1"><g transform="translate(21.155332, 21.19334)"><g><path d="M -2.03125 -3.21875 C -2.257812 -3.46875 -2.359375 -3.78125 -2.328125 -4.15625 C -2.304688 -4.53125 -2.160156 -4.835938 -1.890625 -5.078125 C -1.628906 -5.316406 -1.304688 -5.425781 -0.921875 -5.40625 C -0.546875 -5.382812 -0.242188 -5.25 -0.015625 -5 C 0.210938 -4.738281 0.3125 -4.421875 0.28125 -4.046875 C 0.25 -3.671875 0.101562 -3.363281 -0.15625 -3.125 C -0.425781 -2.882812 -0.75 -2.773438 -1.125 -2.796875 C -1.5 -2.816406 -1.800781 -2.957031 -2.03125 -3.21875 Z M -2.03125 -3.21875 "/></g></g></g><g fill="#a6a6a6" fill-opacity="1"><g transform="translate(26.074329, 17.186476)"><g/></g></g><g fill="#a6a6a6" fill-opacity="1"><g transform="translate(30.170136, 14.646154)"><g><path d="M 0.78125 -0.625 L -2.109375 -8.640625 C -2.140625 -8.722656 -2.128906 -8.800781 -2.078125 -8.875 C -2.035156 -8.957031 -1.960938 -9.019531 -1.859375 -9.0625 L 0.234375 -9.8125 C 0.972656 -10.082031 1.640625 -10.09375 2.234375 -9.84375 C 2.828125 -9.601562 3.28125 -9.050781 3.59375 -8.1875 L 4.890625 -4.609375 C 5.203125 -3.742188 5.207031 -3.023438 4.90625 -2.453125 C 4.601562 -1.890625 4.082031 -1.472656 3.34375 -1.203125 L 1.25 -0.453125 C 1.144531 -0.410156 1.046875 -0.40625 0.953125 -0.4375 C 0.867188 -0.476562 0.8125 -0.539062 0.78125 -0.625 Z M 1.40625 -1.328125 L 3.078125 -1.921875 C 3.597656 -2.109375 3.953125 -2.40625 4.140625 -2.8125 C 4.328125 -3.226562 4.316406 -3.734375 4.109375 -4.328125 L 2.8125 -7.90625 C 2.59375 -8.507812 2.28125 -8.90625 1.875 -9.09375 C 1.476562 -9.28125 1.019531 -9.28125 0.5 -9.09375 L -1.171875 -8.5 Z M 1.40625 -1.328125 "/></g></g></g><g fill="#a6a6a6" fill-opacity="1"><g transform="translate(39.042988, 11.943457)"><g><path d="M 0.890625 -0.453125 L -0.234375 -8.890625 C -0.265625 -9.097656 -0.144531 -9.21875 0.125 -9.25 C 0.40625 -9.289062 0.5625 -9.207031 0.59375 -9 L 1.71875 -0.5625 C 1.738281 -0.457031 1.707031 -0.367188 1.625 -0.296875 C 1.550781 -0.234375 1.457031 -0.195312 1.34375 -0.1875 C 1.226562 -0.164062 1.128906 -0.175781 1.046875 -0.21875 C 0.960938 -0.269531 0.910156 -0.347656 0.890625 -0.453125 Z M 0.890625 -0.453125 "/></g></g></g><g fill="#a6a6a6" fill-opacity="1"><g transform="translate(44.075186, 11.333287)"><g><path d="M 0.546875 -1.234375 C 0.546875 -1.335938 0.585938 -1.4375 0.671875 -1.53125 C 0.765625 -1.632812 0.859375 -1.679688 0.953125 -1.671875 C 1.015625 -1.671875 1.09375 -1.609375 1.1875 -1.484375 L 1.5 -1.109375 C 1.613281 -0.960938 1.800781 -0.828125 2.0625 -0.703125 C 2.332031 -0.578125 2.648438 -0.503906 3.015625 -0.484375 C 3.597656 -0.441406 4.0625 -0.554688 4.40625 -0.828125 C 4.75 -1.097656 4.941406 -1.515625 4.984375 -2.078125 C 5.003906 -2.453125 4.945312 -2.773438 4.8125 -3.046875 C 4.6875 -3.316406 4.503906 -3.53125 4.265625 -3.6875 C 4.046875 -3.851562 3.789062 -4.003906 3.5 -4.140625 L 2.625 -4.5625 C 2.34375 -4.695312 2.085938 -4.851562 1.859375 -5.03125 C 1.628906 -5.207031 1.445312 -5.445312 1.3125 -5.75 C 1.175781 -6.0625 1.125 -6.421875 1.15625 -6.828125 C 1.1875 -7.265625 1.289062 -7.632812 1.46875 -7.9375 C 1.65625 -8.238281 1.890625 -8.457031 2.171875 -8.59375 C 2.460938 -8.738281 2.753906 -8.832031 3.046875 -8.875 C 3.347656 -8.925781 3.648438 -8.941406 3.953125 -8.921875 C 4.460938 -8.890625 4.9375 -8.785156 5.375 -8.609375 C 5.8125 -8.429688 6.019531 -8.234375 6 -8.015625 C 6 -7.921875 5.957031 -7.820312 5.875 -7.71875 C 5.789062 -7.625 5.695312 -7.578125 5.59375 -7.578125 C 5.550781 -7.585938 5.457031 -7.632812 5.3125 -7.71875 C 5.175781 -7.8125 4.988281 -7.90625 4.75 -8 C 4.507812 -8.09375 4.222656 -8.148438 3.890625 -8.171875 C 3.378906 -8.210938 2.941406 -8.128906 2.578125 -7.921875 C 2.222656 -7.722656 2.023438 -7.363281 1.984375 -6.84375 C 1.960938 -6.488281 2.039062 -6.179688 2.21875 -5.921875 C 2.40625 -5.671875 2.648438 -5.476562 2.953125 -5.34375 C 3.265625 -5.207031 3.59375 -5.054688 3.9375 -4.890625 C 4.28125 -4.722656 4.597656 -4.539062 4.890625 -4.34375 C 5.191406 -4.15625 5.429688 -3.863281 5.609375 -3.46875 C 5.785156 -3.082031 5.851562 -2.625 5.8125 -2.09375 C 5.75 -1.238281 5.46875 -0.609375 4.96875 -0.203125 C 4.46875 0.191406 3.816406 0.359375 3.015625 0.296875 C 2.285156 0.253906 1.6875 0.0625 1.21875 -0.28125 C 0.75 -0.632812 0.523438 -0.953125 0.546875 -1.234375 Z M 0.546875 -1.234375 "/></g></g></g><g fill="#a6a6a6" fill-opacity="1"><g transform="translate(52.354174, 12.160012)"><g><path d="M 1.625 -2.203125 L 2.859375 -5.890625 C 3.140625 -6.742188 3.582031 -7.300781 4.1875 -7.5625 C 4.789062 -7.820312 5.460938 -7.828125 6.203125 -7.578125 C 6.960938 -7.328125 7.492188 -6.9375 7.796875 -6.40625 C 8.109375 -5.875 8.171875 -5.332031 7.984375 -4.78125 C 7.921875 -4.59375 7.847656 -4.472656 7.765625 -4.421875 C 7.691406 -4.378906 7.578125 -4.378906 7.421875 -4.421875 C 7.179688 -4.503906 7.09375 -4.648438 7.15625 -4.859375 C 7.175781 -4.984375 7.191406 -5.101562 7.203125 -5.21875 C 7.210938 -5.332031 7.207031 -5.46875 7.1875 -5.625 C 7.164062 -5.789062 7.113281 -5.941406 7.03125 -6.078125 C 6.957031 -6.222656 6.828125 -6.363281 6.640625 -6.5 C 6.453125 -6.644531 6.222656 -6.757812 5.953125 -6.84375 C 4.804688 -7.226562 4.035156 -6.820312 3.640625 -5.625 L 2.40625 -1.9375 C 2 -0.726562 2.382812 0.0703125 3.5625 0.46875 C 3.90625 0.582031 4.195312 0.628906 4.4375 0.609375 C 4.6875 0.597656 4.890625 0.519531 5.046875 0.375 C 5.210938 0.226562 5.332031 0.0976562 5.40625 -0.015625 C 5.488281 -0.128906 5.578125 -0.28125 5.671875 -0.46875 C 5.765625 -0.65625 5.925781 -0.707031 6.15625 -0.625 C 6.3125 -0.582031 6.40625 -0.515625 6.4375 -0.421875 C 6.476562 -0.335938 6.46875 -0.203125 6.40625 -0.015625 C 6.207031 0.546875 5.816406 0.945312 5.234375 1.1875 C 4.660156 1.425781 3.992188 1.421875 3.234375 1.171875 C 2.503906 0.929688 1.976562 0.53125 1.65625 -0.03125 C 1.34375 -0.601562 1.332031 -1.328125 1.625 -2.203125 Z M 1.625 -2.203125 "/></g></g></g><g fill="#a6a6a6" fill-opacity="1"><g transform="translate(60.467745, 15.132731)"><g><path d="M 2.203125 -1.671875 L 5.65625 -6.859375 C 5.769531 -7.023438 5.941406 -7.03125 6.171875 -6.875 C 6.398438 -6.71875 6.457031 -6.554688 6.34375 -6.390625 L 2.890625 -1.203125 C 2.535156 -0.671875 2.394531 -0.1875 2.46875 0.25 C 2.550781 0.6875 2.832031 1.066406 3.3125 1.390625 C 3.800781 1.710938 4.265625 1.828125 4.703125 1.734375 C 5.140625 1.640625 5.535156 1.328125 5.890625 0.796875 L 9.34375 -4.390625 C 9.457031 -4.554688 9.628906 -4.5625 9.859375 -4.40625 C 10.097656 -4.257812 10.160156 -4.101562 10.046875 -3.9375 L 6.59375 1.25 C 6.070312 2.019531 5.488281 2.453125 4.84375 2.546875 C 4.207031 2.640625 3.5625 2.46875 2.90625 2.03125 C 2.25 1.59375 1.835938 1.054688 1.671875 0.421875 C 1.503906 -0.203125 1.679688 -0.898438 2.203125 -1.671875 Z M 2.203125 -1.671875 "/></g></g></g><g fill="#a6a6a6" fill-opacity="1"><g transform="translate(67.91971, 20.504537)"><g><path d="M 1.25 -0.5 C 1.320312 -0.5625 1.421875 -0.597656 1.546875 -0.609375 C 1.679688 -0.617188 1.78125 -0.585938 1.84375 -0.515625 C 1.882812 -0.472656 1.898438 -0.375 1.890625 -0.21875 L 1.84375 0.265625 C 1.820312 0.453125 1.859375 0.679688 1.953125 0.953125 C 2.054688 1.222656 2.234375 1.5 2.484375 1.78125 C 2.867188 2.21875 3.28125 2.457031 3.71875 2.5 C 4.15625 2.550781 4.582031 2.394531 5 2.03125 C 5.28125 1.78125 5.46875 1.507812 5.5625 1.21875 C 5.664062 0.9375 5.6875 0.65625 5.625 0.375 C 5.59375 0.101562 5.515625 -0.179688 5.390625 -0.484375 L 5.0625 -1.40625 C 4.96875 -1.695312 4.898438 -1.984375 4.859375 -2.265625 C 4.816406 -2.554688 4.851562 -2.859375 4.96875 -3.171875 C 5.09375 -3.492188 5.304688 -3.785156 5.609375 -4.046875 C 5.941406 -4.335938 6.28125 -4.523438 6.625 -4.609375 C 6.96875 -4.691406 7.289062 -4.679688 7.59375 -4.578125 C 7.894531 -4.484375 8.164062 -4.347656 8.40625 -4.171875 C 8.65625 -4.003906 8.882812 -3.800781 9.09375 -3.5625 C 9.425781 -3.175781 9.6875 -2.765625 9.875 -2.328125 C 10.0625 -1.898438 10.070312 -1.613281 9.90625 -1.46875 C 9.832031 -1.40625 9.734375 -1.363281 9.609375 -1.34375 C 9.484375 -1.332031 9.382812 -1.367188 9.3125 -1.453125 C 9.28125 -1.484375 9.242188 -1.578125 9.203125 -1.734375 C 9.171875 -1.898438 9.101562 -2.101562 9 -2.34375 C 8.894531 -2.582031 8.734375 -2.828125 8.515625 -3.078125 C 8.171875 -3.460938 7.796875 -3.710938 7.390625 -3.828125 C 6.992188 -3.941406 6.601562 -3.828125 6.21875 -3.484375 C 5.945312 -3.242188 5.785156 -2.96875 5.734375 -2.65625 C 5.691406 -2.34375 5.734375 -2.03125 5.859375 -1.71875 C 5.984375 -1.414062 6.109375 -1.082031 6.234375 -0.71875 C 6.359375 -0.351562 6.457031 0 6.53125 0.34375 C 6.601562 0.6875 6.566406 1.0625 6.421875 1.46875 C 6.273438 1.875 6 2.253906 5.59375 2.609375 C 4.957031 3.171875 4.316406 3.414062 3.671875 3.34375 C 3.035156 3.269531 2.453125 2.929688 1.921875 2.328125 C 1.429688 1.773438 1.144531 1.210938 1.0625 0.640625 C 0.976562 0.0664062 1.039062 -0.3125 1.25 -0.5 Z M 1.25 -0.5 "/></g></g></g><g fill="#a6a6a6" fill-opacity="1"><g transform="translate(73.223219, 26.935315)"><g><path d="M 1.328125 -0.171875 C 1.421875 -0.210938 1.53125 -0.222656 1.65625 -0.203125 C 1.789062 -0.191406 1.878906 -0.144531 1.921875 -0.0625 C 1.953125 0 1.9375 0.0976562 1.875 0.234375 L 1.71875 0.71875 C 1.65625 0.894531 1.640625 1.125 1.671875 1.40625 C 1.703125 1.695312 1.800781 2.003906 1.96875 2.328125 C 2.238281 2.859375 2.578125 3.195312 2.984375 3.34375 C 3.398438 3.5 3.859375 3.445312 4.359375 3.1875 C 4.691406 3.019531 4.941406 2.804688 5.109375 2.546875 C 5.273438 2.296875 5.363281 2.03125 5.375 1.75 C 5.394531 1.46875 5.382812 1.164062 5.34375 0.84375 L 5.265625 -0.109375 C 5.222656 -0.421875 5.21875 -0.71875 5.25 -1 C 5.289062 -1.289062 5.410156 -1.570312 5.609375 -1.84375 C 5.804688 -2.125 6.085938 -2.359375 6.453125 -2.546875 C 6.835938 -2.742188 7.203125 -2.835938 7.546875 -2.828125 C 7.898438 -2.828125 8.210938 -2.742188 8.484375 -2.578125 C 8.753906 -2.410156 8.984375 -2.207031 9.171875 -1.96875 C 9.367188 -1.738281 9.539062 -1.484375 9.6875 -1.203125 C 9.914062 -0.753906 10.066406 -0.300781 10.140625 0.15625 C 10.222656 0.625 10.164062 0.910156 9.96875 1.015625 C 9.882812 1.054688 9.773438 1.066406 9.640625 1.046875 C 9.515625 1.023438 9.429688 0.96875 9.390625 0.875 C 9.367188 0.84375 9.359375 0.742188 9.359375 0.578125 C 9.359375 0.410156 9.335938 0.195312 9.296875 -0.0625 C 9.253906 -0.320312 9.160156 -0.597656 9.015625 -0.890625 C 8.773438 -1.359375 8.476562 -1.691406 8.125 -1.890625 C 7.769531 -2.097656 7.359375 -2.082031 6.890625 -1.84375 C 6.578125 -1.6875 6.359375 -1.457031 6.234375 -1.15625 C 6.109375 -0.863281 6.066406 -0.550781 6.109375 -0.21875 C 6.148438 0.101562 6.1875 0.457031 6.21875 0.84375 C 6.25 1.226562 6.257812 1.597656 6.25 1.953125 C 6.238281 2.304688 6.113281 2.65625 5.875 3 C 5.632812 3.351562 5.273438 3.65625 4.796875 3.90625 C 4.035156 4.289062 3.351562 4.367188 2.75 4.140625 C 2.144531 3.921875 1.660156 3.453125 1.296875 2.734375 C 0.960938 2.078125 0.820312 1.457031 0.875 0.875 C 0.925781 0.300781 1.078125 -0.046875 1.328125 -0.171875 Z M 1.328125 -0.171875 "/></g></g></g><g fill="#a6a6a6" fill-opacity="1"><g transform="translate(76.724898, 34.689529)"><g/></g></g><g fill="#a6a6a6" fill-opacity="1"><g transform="translate(77.920748, 39.507656)"><g><path d="M 3.796875 0.21875 C 4.140625 0.175781 4.457031 0.273438 4.75 0.515625 C 5.039062 0.765625 5.203125 1.0625 5.234375 1.40625 C 5.273438 1.757812 5.175781 2.082031 4.9375 2.375 C 4.707031 2.675781 4.421875 2.847656 4.078125 2.890625 C 3.734375 2.921875 3.414062 2.816406 3.125 2.578125 C 2.84375 2.335938 2.679688 2.039062 2.640625 1.6875 C 2.609375 1.34375 2.707031 1.019531 2.9375 0.71875 C 3.164062 0.414062 3.453125 0.25 3.796875 0.21875 Z M 3.796875 0.21875 "/></g></g></g><g fill="#a6a6a6" fill-opacity="1"><g transform="translate(78.321939, 45.837927)"><g/></g></g><g fill="#a6a6a6" fill-opacity="1"><g transform="translate(77.99437, 50.656124)"><g><path d="M 2.296875 1.515625 L 6.03125 2.546875 C 6.914062 2.796875 7.5 3.207031 7.78125 3.78125 C 8.070312 4.351562 8.113281 5.015625 7.90625 5.765625 C 7.695312 6.523438 7.328125 7.082031 6.796875 7.4375 C 6.273438 7.789062 5.710938 7.882812 5.109375 7.71875 C 4.835938 7.644531 4.738281 7.472656 4.8125 7.203125 C 4.882812 6.953125 5.019531 6.847656 5.21875 6.890625 C 6.21875 7.046875 6.863281 6.609375 7.15625 5.578125 C 7.46875 4.429688 7.015625 3.6875 5.796875 3.34375 L 2.0625 2.3125 C 1.4375 2.132812 0.925781 2.15625 0.53125 2.375 C 0.144531 2.59375 -0.117188 2.972656 -0.265625 3.515625 C -0.421875 4.066406 -0.382812 4.53125 -0.15625 4.90625 C 0.0625 5.289062 0.484375 5.570312 1.109375 5.75 L 2.53125 6.140625 L 2.984375 4.515625 C 3.003906 4.429688 3.054688 4.367188 3.140625 4.328125 C 3.234375 4.296875 3.328125 4.289062 3.421875 4.3125 C 3.503906 4.34375 3.570312 4.394531 3.625 4.46875 C 3.6875 4.550781 3.707031 4.632812 3.6875 4.71875 L 3.09375 6.84375 C 3.039062 7.039062 2.90625 7.109375 2.6875 7.046875 L 0.890625 6.546875 C -0.00390625 6.296875 -0.597656 5.882812 -0.890625 5.3125 C -1.179688 4.738281 -1.21875 4.070312 -1 3.3125 C -0.789062 2.550781 -0.414062 2 0.125 1.65625 C 0.675781 1.3125 1.398438 1.265625 2.296875 1.515625 Z M 2.296875 1.515625 "/></g></g></g><g fill="#a6a6a6" fill-opacity="1"><g transform="translate(75.34481, 59.121772)"><g><path d="M -0.203125 1 L 7.125 5.328125 C 7.289062 5.421875 7.332031 5.5625 7.25 5.75 L 6.125 7.65625 C 5.707031 8.34375 5.207031 8.800781 4.625 9.03125 C 4.039062 9.269531 3.367188 9.171875 2.609375 8.734375 C 1.421875 8.023438 1.054688 7.050781 1.515625 5.8125 L -2.640625 5.578125 C -2.691406 5.585938 -2.75 5.578125 -2.8125 5.546875 C -2.90625 5.492188 -2.960938 5.398438 -2.984375 5.265625 C -3.015625 5.128906 -3.003906 5.015625 -2.953125 4.921875 C -2.867188 4.785156 -2.664062 4.734375 -2.34375 4.765625 L 1.890625 5.015625 L 2.6875 3.65625 L -0.625 1.703125 C -0.71875 1.648438 -0.765625 1.570312 -0.765625 1.46875 C -0.773438 1.363281 -0.75 1.265625 -0.6875 1.171875 C -0.632812 1.066406 -0.5625 1 -0.46875 0.96875 C -0.382812 0.9375 -0.296875 0.945312 -0.203125 1 Z M 3.296875 4.015625 L 2.4375 5.484375 C 1.800781 6.554688 1.988281 7.390625 3 7.984375 C 4 8.578125 4.816406 8.335938 5.453125 7.265625 L 6.3125 5.796875 Z M 3.296875 4.015625 "/></g></g></g><g fill="#a6a6a6" fill-opacity="1"><g transform="translate(70.680568, 66.49814)"><g><path d="M 1.21875 2.46875 L 3.921875 5.234375 C 4.554688 5.890625 4.851562 6.535156 4.8125 7.171875 C 4.78125 7.804688 4.476562 8.398438 3.90625 8.953125 C 3.34375 9.503906 2.738281 9.789062 2.09375 9.8125 C 1.457031 9.84375 0.820312 9.53125 0.1875 8.875 L -2.515625 6.109375 C -3.171875 5.441406 -3.476562 4.785156 -3.4375 4.140625 C -3.394531 3.492188 -3.085938 2.894531 -2.515625 2.34375 C -1.953125 1.789062 -1.351562 1.503906 -0.71875 1.484375 C -0.0820312 1.472656 0.5625 1.800781 1.21875 2.46875 Z M 0.625 3.046875 C -0.269531 2.117188 -1.140625 2.066406 -1.984375 2.890625 C -2.835938 3.722656 -2.816406 4.601562 -1.921875 5.53125 L 0.78125 8.296875 C 1.664062 9.203125 2.53125 9.238281 3.375 8.40625 C 4.226562 7.582031 4.210938 6.71875 3.328125 5.8125 Z M 0.625 3.046875 "/></g></g></g><g fill="#a6a6a6" fill-opacity="1"><g transform="translate(64.274946, 72.644345)"><g><path d="M 3.703125 8 C 3.742188 8.082031 3.734375 8.175781 3.671875 8.28125 C 3.617188 8.394531 3.539062 8.476562 3.4375 8.53125 C 3.28125 8.601562 3.148438 8.582031 3.046875 8.46875 L -2.328125 2.5625 L -1.359375 7.3125 C -1.316406 7.5 -1.40625 7.648438 -1.625 7.765625 C -1.820312 7.859375 -1.988281 7.835938 -2.125 7.703125 L -5.34375 4.078125 L -3.8125 11.921875 C -3.800781 12.078125 -3.867188 12.191406 -4.015625 12.265625 C -4.128906 12.328125 -4.242188 12.347656 -4.359375 12.328125 C -4.484375 12.304688 -4.566406 12.253906 -4.609375 12.171875 C -4.617188 12.128906 -4.628906 12.097656 -4.640625 12.078125 L -6.25 3.390625 C -6.28125 3.191406 -6.175781 3.03125 -5.9375 2.90625 C -5.6875 2.78125 -5.5 2.796875 -5.375 2.953125 L -2.328125 6.359375 L -3.25 1.875 C -3.289062 1.6875 -3.1875 1.53125 -2.9375 1.40625 C -2.695312 1.28125 -2.503906 1.289062 -2.359375 1.4375 L 3.65625 7.90625 C 3.675781 7.925781 3.691406 7.957031 3.703125 8 Z M 3.703125 8 "/></g></g></g><g fill="#a6a6a6" fill-opacity="1"><g transform="translate(53.354971, 77.381158)"><g><path d="M 0.140625 3.796875 C 0.210938 4.140625 0.144531 4.46875 -0.0625 4.78125 C -0.28125 5.09375 -0.5625 5.28125 -0.90625 5.34375 C -1.257812 5.414062 -1.59375 5.347656 -1.90625 5.140625 C -2.226562 4.941406 -2.425781 4.671875 -2.5 4.328125 C -2.5625 3.992188 -2.484375 3.671875 -2.265625 3.359375 C -2.054688 3.046875 -1.773438 2.851562 -1.421875 2.78125 C -1.078125 2.71875 -0.742188 2.785156 -0.421875 2.984375 C -0.109375 3.191406 0.078125 3.460938 0.140625 3.796875 Z M 0.140625 3.796875 "/></g></g></g><g fill="#a6a6a6" fill-opacity="1"><g transform="translate(47.09228, 78.373651)"><g/></g></g></svg>